<svg width="315" height="101" viewBox="0 0 315 101" fill="none" xmlns="http://www.w3.org/2000/svg">
<path d="M2.99991 23.0001C1.6192 23.0001 0.499911 21.8808 0.499912 20.5001C0.49991 19.1194 1.6192 18.0001 2.99991 18.0001L2.99991 23.0001ZM261.301 100.233C260.344 101.228 258.761 101.259 257.766 100.302L241.552 84.7018C240.557 83.7445 240.527 82.1619 241.484 81.1669C242.441 80.1719 244.024 80.1414 245.019 81.0987L259.431 94.9651L273.298 80.5526C274.255 79.5576 275.838 79.5271 276.833 80.4844C277.828 81.4417 277.858 83.0243 276.901 84.0192L261.301 100.233ZM259.5 98.5C257 98.5483 257 98.5482 257 98.5482C257 98.5481 257 98.548 257 98.548C257 98.5478 257 98.5477 257 98.5475C257 98.5471 257 98.5466 257 98.546C257 98.5447 257 98.543 257 98.5408C257 98.5364 257 98.5301 257 98.5219C256.999 98.5054 256.999 98.4814 256.998 98.4499C256.997 98.387 256.996 98.2942 256.994 98.1728C256.991 97.9299 256.987 97.5722 256.983 97.1086C256.976 96.1815 256.971 94.8306 256.981 93.1271L261.981 93.1561C261.971 94.8353 261.976 96.1635 261.983 97.07C261.986 97.5232 261.991 97.8708 261.994 98.1041C261.995 98.2207 261.997 98.3088 261.998 98.3671C261.998 98.3962 261.999 98.418 261.999 98.4321C261.999 98.4392 261.999 98.4444 261.999 98.4477C261.999 98.4493 261.999 98.4505 261.999 98.4511C261.999 98.4515 261.999 98.4517 261.999 98.4518C261.999 98.4519 261.999 98.4519 261.999 98.4519L261.999 98.4518C261.999 98.4518 261.999 98.4518 259.5 98.5ZM257.2 82.2317C257.31 78.9411 257.473 75.2896 257.711 71.4112L262.702 71.7172C262.467 75.5441 262.306 79.1492 262.197 82.3999L257.2 82.2317ZM258.545 60.5597C258.877 57.0011 259.278 53.3615 259.763 49.7241L264.719 50.385C264.244 53.9485 263.85 57.522 263.523 61.0242L258.545 60.5597ZM261.48 38.9234C262.172 35.2347 262.972 31.6273 263.897 28.1974L268.724 29.4992C267.839 32.7812 267.067 36.2592 266.394 39.8456L261.48 38.9234ZM267.418 17.6693C269.008 13.8554 270.878 10.4339 273.094 7.67967L276.989 10.8146C275.161 13.0867 273.508 16.0546 272.032 19.5937L267.418 17.6693ZM283.37 0.966398C287.121 0.255086 291.144 1.03111 295.389 3.27822L293.05 7.69732C289.542 5.84036 286.675 5.42884 284.302 5.87884L283.37 0.966398ZM304.541 10.0454C305.836 11.253 307.16 12.5858 308.515 14.0482L304.848 17.447C303.567 16.0642 302.328 14.8184 301.131 13.7018L304.541 10.0454ZM308.515 14.0482C309.912 15.5555 311.088 17.0176 312.036 18.438L307.877 21.214C307.105 20.0573 306.105 18.8024 304.848 17.447L308.515 14.0482ZM314.224 30.3661C312.757 33.8418 309.336 36.2486 305.107 37.9751L303.217 33.3459C307.011 31.7972 308.922 30.0697 309.618 28.4213L314.224 30.3661ZM294.79 40.8558C291.641 41.4564 288.164 41.9388 284.404 42.3167L283.904 37.3418C287.553 36.9751 290.88 36.5114 293.853 35.9443L294.79 40.8558ZM274.014 43.0723C270.721 43.2334 267.267 43.3383 263.671 43.3921L263.597 38.3927C267.144 38.3396 270.54 38.2363 273.769 38.0782L274.014 43.0723ZM253.364 43.414C250.026 43.3824 246.591 43.3156 243.07 43.2168L243.21 38.2188C246.703 38.3168 250.107 38.3829 253.411 38.4143L253.364 43.414ZM232.775 42.8497C229.403 42.7056 225.966 42.5371 222.474 42.3465L222.747 37.354C226.22 37.5436 229.637 37.7111 232.989 37.8543L232.775 42.8497ZM212.171 41.7321C208.805 41.5154 205.398 41.2813 201.957 41.0319L202.319 36.045C205.747 36.2935 209.14 36.5266 212.492 36.7424L212.171 41.7321ZM191.716 40.2533C188.321 39.9838 184.901 39.7017 181.462 39.4087L181.886 34.4268C185.316 34.719 188.727 35.0003 192.111 35.2689L191.716 40.2533ZM171.224 38.5105C167.828 38.2045 164.42 37.8897 161.007 37.5679L161.476 32.5899C164.884 32.9112 168.284 33.2253 171.672 33.5307L171.224 38.5105ZM150.781 36.5853C147.374 36.2522 143.968 35.9138 140.568 35.5716L141.068 30.5967C144.464 30.9385 147.866 31.2764 151.267 31.609L150.781 36.5853ZM130.353 34.5316C126.932 34.1796 123.523 33.8255 120.133 33.471L120.653 28.4981C124.041 28.8524 127.447 29.2062 130.865 29.5579L130.353 34.5316ZM109.934 32.3981C106.512 32.0364 103.116 31.6761 99.7528 31.319L100.281 26.3469C103.644 26.704 107.039 27.0642 110.46 27.4258L109.934 32.3981ZM89.52 30.2326C86.0686 29.8667 82.6611 29.5065 79.3052 29.1539L79.8276 24.1813C83.1857 24.5341 86.5949 24.8945 90.0472 25.2605L89.52 30.2326ZM69.1168 28.0922C65.6589 27.7354 62.2689 27.3898 58.9562 27.0581L59.4544 22.083C62.773 22.4153 66.1681 22.7614 69.63 23.1186L69.1168 28.0922ZM48.7691 26.0601C45.2468 25.7238 41.8348 25.4083 38.5461 25.1172L38.9869 20.1367C42.2889 20.429 45.7126 20.7455 49.2443 21.0828L48.7691 26.0601ZM28.3462 24.2647C24.7577 23.9853 21.3673 23.7463 18.1968 23.5538L18.4999 18.563C21.7042 18.7575 25.1235 18.9986 28.7344 19.2798L28.3462 24.2647ZM7.93705 23.0763C6.17357 23.026 4.52591 23.0001 2.99991 23.0001L2.99991 18.0001C4.58136 18.0001 6.27722 18.0269 8.07948 18.0783L7.93705 23.0763Z" fill="#8DE3D1"/>
</svg>
